PathFileType	4	(X/Y/Z)	C:/Users/beibeiliu/ov580/test_trc\sequence.44_training_dense_right.trc
DataRate	CameraRate	NumFrames	NumMarkers	Units	OrigDataRate	OrigDataStartFrame	OrigNumFrames
120	120	10	19	mm	120	37	73
Frame#	Time	ThumbCMC			ThumbMCP			ThumbIP			ThumbTip			IndexMCP			IndexPIP			IndexTip			MiddleMCP			MiddlePIP			MiddleTip			RingMCP			RingPIP			RingTip			PinkyMCP			PinkyPIP			PinkyTip			BackHand1			BackHand2			BackHand3	
		X0	Y0	Z0	X1	Y1	Z1	X2	Y2	Z2	X3	Y3	Z3	X4	Y4	Z4	X5	Y5	Z5	X6	Y6	Z6	X7	Y7	Z7	X8	Y8	Z8	X9	Y9	Z9	X10	Y10	Z10	X11	Y11	Z11	X12	Y12	Z12	X13	Y13	Z13	X14	Y14	Z14	X15	Y15	Z15	X16	Y16	Z16	X17	Y17	Z17	X18	Y18	Z18	
36	0.3	98.2666	102.893	65.6485	90.8243	85.992	40.506	86.48	83.2431	12.4505	94.7533	82.5588	-7.69492	80.0358	129.517	10.02	79.0447	106.121	-5.11266	95.5454	89.312	11.2628	93.5271	126.713	0.589788	100.279	101.662	-9.27417	109.949	87.0396	20.5231	116.868	122.765	1.62717	118.107	94.0321	4.62541	123.139	92.379	31.4506	135.787	120.736	6.42648	133.245	93.5968	13.8119	129.661	93.776	35.1293	128.297	140.626	47.6397	135.776	136.135	70.4867	110.97	133.491	69.0357	
37	0.308333	104.541	95.7899	70.3969	93.6828	77.5065	42.999	90.6702	74.3473	14.4695	100.472	75.0395	-6.18686	82.0628	121.181	13.8235	84.4548	100.568	-4.31669	96.2707	79.3642	15.7972	97.9367	121.169	1.38349	105.769	94.6789	-7.90497	116.799	83.0005	21.352	119.204	117.977	2.21675	121.128	88.086	6.08498	124.355	85.5316	31.1055	138.242	114.094	6.23261	135.989	89.6102	14.4527	132.177	91.4473	39.5501	131.371	137.875	49.7179	141.061	133.999	70.5418	110.543	129.857	65.7606	
38	0.316667	104.945	91.2302	74.4703	95.488	73.9572	46.3992	92.354	70.4862	19.2533	100.844	68.7518	-0.341923	82.1357	115.46	13.5838	84.0087	92.6207	-0.0976433	99.6837	76.6284	19.8447	101.955	117.391	4.8008	103.549	89.5499	-4.33405	114.785	76.5686	25.4611	118.214	109.918	4.0825	123.299	85.4265	5.52706	125.66	80.9691	34.3086	138.373	111.664	10.5625	138.941	87.7206	13.4725	134.476	86.2687	38.879	132.287	131.534	51.9668	139.46	128.114	74.2959	112.681	126.597	70.049	
39	0.325	101.761	88.7672	77.6343	93.2604	76.8034	45.4569	92.4418	74.6701	22.5981	98.4497	70.8089	3.12612	83.1383	118.214	23.2823	80.8413	96.9873	2.64346	95.4845	76.3219	21.945	98.7408	116.305	7.75331	105.005	87.5542	-0.547276	116.211	77.7177	28.268	121.759	108.802	5.51656	121.093	83.0945	10.4101	125.813	80.7536	38.6949	136.011	108.325	13.6635	136.864	83.3596	18.5964	136.067	85.5716	45.0364	137.291	130.214	53.3389	146.875	123.099	78.5445	113.973	124.689	73.9461	
40	0.333333	102.165	99.4145	77.9802	91.516	87.9126	50.3612	86.6917	85.8632	26.7458	92.9988	86.0707	4.43667	90.6703	133.747	26.0598	87.5501	113.406	5.37884	96.4474	89.3306	25.8001	110.445	128.101	11.8401	103.334	102.415	1.2081	111.768	83.9949	29.0642	129.131	116.283	12.0977	119.882	89.876	13.187	125.475	82.7878	39.1633	144.119	108.241	15.0353	136.394	84.6625	21.9981	136.314	84.7474	47.2568	143.866	129.939	57.4932	153.446	121.521	82.1006	125.864	126.725	76.788	
41	0.341667	106.749	110.635	83.068	88.7757	104.718	57.217	86.4495	108.573	31.3354	88.7644	106.706	6.75447	103.08	151.046	32.9962	93.0515	132.835	12.2305	92.1144	108.581	28.4279	117.459	139.999	16.6836	107.893	115.268	6.14601	110.827	95.9943	33.6923	132.173	121.063	14.9187	116.818	101.616	16.5412	122.195	91.5125	46.1084	147.767	110.22	20.7432	128.351	91.5786	28.1366	131.029	87.9628	49.9804	156.197	127.285	64.4919	158.632	114.607	83.491	133.101	130.308	84.7816	
42	0.35	113.372	123.033	88.985	94.319	125.239	64.8556	88.5958	132.109	39.1035	89.4398	130.933	14.0789	125.62	159.645	35.8813	109.147	150.385	19.5233	98.0631	127.599	34.8267	133.808	144.504	22.1385	114.014	130.136	11.3875	105.509	109.578	38.0229	136.533	125.698	24.1262	114.335	110.229	24.3407	112.529	102.762	49.453	146.546	106.249	24.9935	123.567	95.9377	28.9238	122.532	93.8129	56.7655	162.773	117.518	69.4863	162.039	104.014	88.0284	144.863	130.895	87.7095	
43	0.358333	121.269	132.477	96.1329	106.475	140.041	70.8921	101.399	146.967	48.4534	99.614	145.528	26.1763	147.753	154.003	42.5318	121.124	156.457	24.7863	105.617	141.827	41.8529	146.614	138.476	30.6506	117.918	138.466	19.1129	105.072	124.091	43.8057	141.623	119.808	27.7141	112.157	117.743	32.0524	111.048	107.716	55.7131	138.781	99.9154	27.9681	115.658	103.8	36.1734	116.002	100.655	61.499	162.104	103.153	72.7766	158.455	92.4056	92.9967	154.24	118.259	92.5513	
44	0.366667	134.969	130.889	94.5681	121.942	146.043	74.4337	117.385	152.682	51.5925	111.752	151.176	28.1949	160.046	141.186	35.8903	138.526	150.936	23.8826	117.758	142.279	45.8848	149.519	126.047	27.8123	122.049	133.012	21.0059	110.727	130.24	50.9013	133.82	110.612	27.7083	110.742	122.279	36.6584	110.437	115.702	61.7198	127.913	95.9606	35.734	107.434	107.386	43.528	114.412	110.001	66.2785	156.105	87.9325	70.7252	145.668	80.8068	98.774	157.258	108.617	94.2169	
45	0.375	144.978	126.836	95.4889	138	145.468	70.6546	134.44	152.741	48.0093	123.855	150.96	24.8787	161.414	116.138	36.4624	146.131	137.373	22.288	130.275	142.821	49.2697	146.707	110.07	28.1119	127.319	130.102	20.8403	117.145	132.968	53.6269	128.406	101.622	34.137	111.65	124.623	39.2507	113.164	123.43	66.1724	110.84	93.3019	39.0738	104.797	113.404	45.3447	108.486	115.394	73.0028	140.787	79.9562	77.1794	132.823	74.3682	104.652	157.727	98.2065	92.4022	
